<svg width="171" height="42" viewBox="0 0 171 42" fill="none" xmlns="http://www.w3.org/2000/svg">
<g clip-path="url(#clip0_120_366)">
<path d="M52.0308 28.7818H63.9828V25.1818H56.2788V11.6218H52.0308V28.7818Z" fill="#8ECAE6"/>
<path d="M71.0639 26.3818C69.3599 26.3818 68.4719 24.8938 68.4719 22.6618C68.4719 20.4298 69.3599 18.9178 71.0639 18.9178C72.7679 18.9178 73.6799 20.4298 73.6799 22.6618C73.6799 24.8938 72.7679 26.3818 71.0639 26.3818ZM71.0879 29.1658C75.0479 29.1658 77.6399 26.3578 77.6399 22.6618C77.6399 18.9658 75.0479 16.1578 71.0879 16.1578C67.1519 16.1578 64.5119 18.9658 64.5119 22.6618C64.5119 26.3578 67.1519 29.1658 71.0879 29.1658Z" fill="#8ECAE6"/>
<path d="M84.4944 33.0298C86.3184 33.0298 87.9264 32.6218 89.0064 31.6618C89.9904 30.7738 90.6384 29.4298 90.6384 27.5818V16.4938H86.8944V17.8138H86.8464C86.1264 16.7818 85.0224 16.1338 83.3904 16.1338C80.3424 16.1338 78.2304 18.6778 78.2304 22.2778C78.2304 26.0458 80.7984 28.1098 83.5584 28.1098C85.0464 28.1098 85.9824 27.5098 86.7024 26.6938H86.7984V27.9178C86.7984 29.4058 86.1024 30.2698 84.4464 30.2698C83.1504 30.2698 82.5024 29.7178 82.2864 29.0698H78.4944C78.8784 31.6378 81.1104 33.0298 84.4944 33.0298ZM84.4704 25.2058C83.0064 25.2058 82.0464 24.0058 82.0464 22.1578C82.0464 20.2858 83.0064 19.0858 84.4704 19.0858C86.1024 19.0858 86.9664 20.4778 86.9664 22.1338C86.9664 23.8618 86.1744 25.2058 84.4704 25.2058Z" fill="#8ECAE6"/>
<path d="M98.3367 26.3818C96.6327 26.3818 95.7447 24.8938 95.7447 22.6618C95.7447 20.4298 96.6327 18.9178 98.3367 18.9178C100.041 18.9178 100.953 20.4298 100.953 22.6618C100.953 24.8938 100.041 26.3818 98.3367 26.3818ZM98.3607 29.1658C102.321 29.1658 104.913 26.3578 104.913 22.6618C104.913 18.9658 102.321 16.1578 98.3607 16.1578C94.4247 16.1578 91.7847 18.9658 91.7847 22.6618C91.7847 26.3578 94.4247 29.1658 98.3607 29.1658Z" fill="#8ECAE6"/>
<path d="M106.055 28.7818H109.967V16.4938H106.055V28.7818ZM106.055 14.7898H109.967V11.6218H106.055V14.7898Z" fill="#8ECAE6"/>
<path d="M111.665 32.8378H115.577V27.5098H115.625C116.393 28.5418 117.521 29.1658 119.105 29.1658C122.321 29.1658 124.457 26.6218 124.457 22.6378C124.457 18.9418 122.465 16.1338 119.201 16.1338C117.521 16.1338 116.321 16.8778 115.481 17.9818H115.409V16.4938H111.665V32.8378ZM118.097 26.1418C116.417 26.1418 115.457 24.7738 115.457 22.7818C115.457 20.7898 116.321 19.2778 118.025 19.2778C119.705 19.2778 120.497 20.6698 120.497 22.7818C120.497 24.8698 119.585 26.1418 118.097 26.1418Z" fill="#8ECAE6"/>
<path d="M130.826 29.1658C134.042 29.1658 136.418 27.7738 136.418 25.0858C136.418 21.9418 133.874 21.3898 131.714 21.0298C130.154 20.7418 128.762 20.6218 128.762 19.7578C128.762 18.9898 129.506 18.6298 130.466 18.6298C131.546 18.6298 132.29 18.9658 132.434 20.0698H136.034C135.842 17.6458 133.97 16.1338 130.49 16.1338C127.586 16.1338 125.186 17.4778 125.186 20.0698C125.186 22.9498 127.466 23.5258 129.602 23.8858C131.234 24.1738 132.722 24.2938 132.722 25.3978C132.722 26.1898 131.978 26.6218 130.802 26.6218C129.506 26.6218 128.69 26.0218 128.546 24.7978H124.85C124.97 27.5098 127.226 29.1658 130.826 29.1658Z" fill="#8ECAE6"/>
<path d="M141.732 29.1418C143.436 29.1418 144.516 28.4698 145.404 27.2698H145.476V28.7818H149.22V16.4938H145.308V23.3578C145.308 24.8218 144.492 25.8298 143.148 25.8298C141.9 25.8298 141.3 25.0858 141.3 23.7418V16.4938H137.412V24.5578C137.412 27.2938 138.9 29.1418 141.732 29.1418Z" fill="#8ECAE6"/>
<path d="M150.921 28.7818H154.833V21.8938C154.833 20.4298 155.553 19.3978 156.777 19.3978C157.953 19.3978 158.505 20.1658 158.505 21.4858V28.7818H162.417V21.8938C162.417 20.4298 163.113 19.3978 164.361 19.3978C165.537 19.3978 166.089 20.1658 166.089 21.4858V28.7818H170.001V20.7898C170.001 18.0298 168.609 16.1338 165.825 16.1338C164.241 16.1338 162.921 16.8058 161.961 18.2938H161.913C161.289 16.9738 160.065 16.1338 158.457 16.1338C156.681 16.1338 155.505 16.9738 154.737 18.2458H154.665V16.4938H150.921V28.7818Z" fill="#8ECAE6"/>
<path fill-rule="evenodd" clip-rule="evenodd" d="M20.8548 40.7818C31.9005 40.7818 40.8548 31.8275 40.8548 20.7818C40.8548 9.73617 31.9005 0.78186 20.8548 0.78186C9.80908 0.78186 0.854797 9.73617 0.854797 20.7818C0.854797 31.8275 9.80908 40.7818 20.8548 40.7818ZM27.0941 10.0987C27.3978 9.01991 26.3509 8.38199 25.3948 9.06316L12.0479 18.5714C11.011 19.3101 11.1741 20.7818 12.2929 20.7818H15.8075V20.7546H22.6573L17.076 22.7239L14.6155 31.465C14.3118 32.5438 15.3586 33.1817 16.3148 32.5005L29.6617 22.9923C30.6986 22.2536 30.5354 20.7818 29.4167 20.7818H24.0869L27.0941 10.0987Z" fill="#F5841F"/>
</g>
<defs>
<clipPath id="clip0_120_366">
<rect width="170" height="41" fill="white" transform="translate(0.170715 0.643799)"/>
</clipPath>
</defs>
</svg>
