<svg width="17" height="16" viewBox="0 0 17 16" fill="none" xmlns="http://www.w3.org/2000/svg">
<path fill-rule="evenodd" clip-rule="evenodd" d="M1.83333 3.33333H15.1667V4.50929L8.5 7.84262L1.83333 4.50929V3.33333ZM0.5 3.33333C0.5 2.59695 1.09695 2 1.83333 2H15.1667C15.903 2 16.5 2.59695 16.5 3.33333V5.33333V12C16.5 13.1046 15.6046 14 14.5 14H2.5C1.39543 14 0.5 13.1046 0.5 12V5.33333V3.33333ZM1.83333 6V12C1.83333 12.3682 2.13181 12.6667 2.5 12.6667H14.5C14.8682 12.6667 15.1667 12.3682 15.1667 12V6L8.5 9.33333L1.83333 6Z" fill="#F5841F"/>
</svg>
