<svg width="19" height="19" viewBox="0 0 19 19" fill="none" xmlns="http://www.w3.org/2000/svg">
<path d="M12.1707 6.6438C13.3642 6.6438 14.5088 7.1179 15.3527 7.96182C16.1966 8.80573 16.6707 9.95032 16.6707 11.1438V16.3938H13.6707V11.1438C13.6707 10.746 13.5127 10.3644 13.2314 10.0831C12.9501 9.80183 12.5685 9.6438 12.1707 9.6438C11.7729 9.6438 11.3914 9.80183 11.1101 10.0831C10.8288 10.3644 10.6707 10.746 10.6707 11.1438V16.3938H7.67072V11.1438C7.67072 9.95032 8.14482 8.80573 8.98873 7.96182C9.83265 7.1179 10.9772 6.6438 12.1707 6.6438V6.6438Z" stroke="#F5841F" stroke-width="1.2" stroke-linecap="round" stroke-linejoin="round"/>
<path d="M4.67072 7.3938H1.67072V16.3938H4.67072V7.3938Z" stroke="#F5841F" stroke-width="1.2" stroke-linecap="round" stroke-linejoin="round"/>
<path d="M3.17072 5.1438C3.99914 5.1438 4.67072 4.47223 4.67072 3.6438C4.67072 2.81537 3.99914 2.1438 3.17072 2.1438C2.34229 2.1438 1.67072 2.81537 1.67072 3.6438C1.67072 4.47223 2.34229 5.1438 3.17072 5.1438Z" stroke="#F5841F" stroke-width="1.2" stroke-linecap="round" stroke-linejoin="round"/>
</svg>
