<svg width="140" height="140" viewBox="0 0 140 140" fill="none" xmlns="http://www.w3.org/2000/svg">
<circle cx="70" cy="70" r="70" fill="#16213C"/>
<g clip-path="url(#clip0_339_159)">
<path d="M71.25 65C71.25 60.875 67.875 57.5 63.75 57.5C59.625 57.5 56.25 60.875 56.25 65C56.25 69.125 59.625 72.5 63.75 72.5C67.875 72.5 71.25 69.125 71.25 65ZM63.75 67.5C62.375 67.5 61.25 66.375 61.25 65C61.25 63.625 62.375 62.5 63.75 62.5C65.125 62.5 66.25 63.625 66.25 65C66.25 66.375 65.125 67.5 63.75 67.5ZM80 72.5C82.775 72.5 85 70.275 85 67.5C85 64.725 82.775 62.5 80 62.5C77.225 62.5 74.975 64.725 75 67.5C75 70.275 77.225 72.5 80 72.5ZM69.975 45.025C56.175 45.025 44.975 56.225 44.975 70.025C44.975 83.825 56.175 95.025 69.975 95.025C83.775 95.025 94.975 83.825 94.975 70.025C94.975 56.225 83.775 45.025 69.975 45.025ZM54.6 82.8C56.3 81.45 60.275 80.025 63.75 80.025C63.925 80.025 64.125 80.05 64.325 80.05C64.925 78.45 66 76.825 67.575 75.4C66.3137 75.1584 65.034 75.0246 63.75 75C60.5 75 55.275 76.125 51.925 78.575C50.675 75.975 49.975 73.075 49.975 70C49.975 58.975 58.95 50 69.975 50C81 50 89.975 58.975 89.975 70C89.975 73 89.3 75.85 88.1 78.425C85.6 76.95 82.2 76.25 80 76.25C76.2 76.25 68.75 78.275 68.75 83V89.95C66.0266 89.7952 63.3644 89.0803 60.9297 87.85C58.495 86.6198 56.3402 84.9007 54.6 82.8Z" fill="#8ECAE6"/>
</g>
<defs>
<clipPath id="clip0_339_159">
<rect width="60" height="60" fill="white" transform="translate(40 40)"/>
</clipPath>
</defs>
</svg>
