<svg width="15" height="15" viewBox="0 0 15 15" fill="none" xmlns="http://www.w3.org/2000/svg">
<path fill-rule="evenodd" clip-rule="evenodd" d="M2.89974 1.33391C3.42032 0.812894 4.26474 0.812658 4.78561 1.33338L7.24744 3.7945C7.76811 4.31503 7.76835 5.15905 7.24796 5.67987L6.37538 6.55317L9.21158 9.38892L10.0836 8.51619C10.6042 7.99517 11.4486 7.99494 11.9695 8.51566L14.1666 10.7121C14.6872 11.2327 14.6875 12.0767 14.1671 12.5975L12.7137 14.0521C11.8615 14.905 10.5496 15.0954 9.49016 14.5198C5.89188 12.565 2.93607 9.60962 0.980401 6.01191C0.404815 4.95304 0.594157 3.64139 1.44613 2.78872L2.89974 1.33391ZM6.30476 4.73745L3.84293 2.27633L2.38933 3.73114C1.95489 4.16593 1.85823 4.83497 2.15185 5.37513C3.98459 8.74671 6.75463 11.5164 10.1266 13.3482C10.6669 13.6417 11.3359 13.5446 11.7705 13.1097L13.2239 11.6551L11.0268 9.4586L9.21205 11.2748L4.49008 6.55363L6.30476 4.73745Z" fill="#F5841F"/>
</svg>
