<svg width="25" height="24" viewBox="0 0 25 24" fill="none" xmlns="http://www.w3.org/2000/svg">
<path fill-rule="evenodd" clip-rule="evenodd" d="M3.5 12C3.5 7.02944 7.52944 3 12.5 3C17.4706 3 21.5 7.02944 21.5 12C21.5 14.7218 20.2918 17.1615 18.3824 18.8118C17.831 16.0672 15.4069 14 12.5 14C9.59309 14 7.169 16.0672 6.61764 18.8118C4.70824 17.1615 3.5 14.7218 3.5 12ZM8.5 20.0645C9.70496 20.6633 11.0632 21 12.5 21C13.9368 21 15.295 20.6633 16.5 20.0645V20C16.5 17.7909 14.7091 16 12.5 16C10.2909 16 8.5 17.7909 8.5 20V20.0645ZM12.5 1C6.42487 1 1.5 5.92487 1.5 12C1.5 18.0751 6.42487 23 12.5 23C18.5751 23 23.5 18.0751 23.5 12C23.5 5.92487 18.5751 1 12.5 1ZM12.5 11C11.3954 11 10.5 10.1046 10.5 9C10.5 7.89543 11.3954 7 12.5 7C13.6046 7 14.5 7.89543 14.5 9C14.5 10.1046 13.6046 11 12.5 11ZM8.5 9C8.5 11.2091 10.2909 13 12.5 13C14.7091 13 16.5 11.2091 16.5 9C16.5 6.79086 14.7091 5 12.5 5C10.2909 5 8.5 6.79086 8.5 9Z" fill="#F5841F"/>
</svg>
