<svg width="141" height="140" viewBox="0 0 141 140" fill="none" xmlns="http://www.w3.org/2000/svg">
<circle cx="70.5" cy="70" r="70" fill="#16213C"/>
<path d="M75.125 85.755L87.5625 73.373L84 69.8886L75.125 78.724L71.625 75.1774L68.0625 78.724L75.125 85.755ZM57.5 77.3551H65V72.3774H57.5V77.3551ZM57.5 69.8886H75V64.9109H57.5V69.8886ZM57.5 62.422H75V57.4443H57.5V62.422ZM70 94.7771C66.5417 94.7771 63.2917 94.1234 60.25 92.8159C57.2083 91.5101 54.5625 89.7372 52.3125 87.4972C50.0625 85.2573 48.2817 82.6232 46.97 79.5951C45.6567 76.567 45 73.3315 45 69.8886C45 66.4457 45.6567 63.2101 46.97 60.182C48.2817 57.1539 50.0625 54.5199 52.3125 52.2799C54.5625 50.0399 57.2083 48.2662 60.25 46.9587C63.2917 45.6529 66.5417 45 70 45C73.4583 45 76.7083 45.6529 79.75 46.9587C82.7917 48.2662 85.4375 50.0399 87.6875 52.2799C89.9375 54.5199 91.7183 57.1539 93.03 60.182C94.3433 63.2101 95 66.4457 95 69.8886C95 73.3315 94.3433 76.567 93.03 79.5951C91.7183 82.6232 89.9375 85.2573 87.6875 87.4972C85.4375 89.7372 82.7917 91.5101 79.75 92.8159C76.7083 94.1234 73.4583 94.7771 70 94.7771ZM70 89.7994C75.5833 89.7994 80.3125 87.8706 84.1875 84.0128C88.0625 80.1551 90 75.447 90 69.8886C90 64.3301 88.0625 59.622 84.1875 55.7643C80.3125 51.9066 75.5833 49.9777 70 49.9777C64.4167 49.9777 59.6875 51.9066 55.8125 55.7643C51.9375 59.622 50 64.3301 50 69.8886C50 75.447 51.9375 80.1551 55.8125 84.0128C59.6875 87.8706 64.4167 89.7994 70 89.7994Z" fill="#8ECAE6"/>
</svg>
