<svg width="19" height="19" viewBox="0 0 19 19" fill="none" xmlns="http://www.w3.org/2000/svg">
<g clip-path="url(#clip0_120_385)">
<path d="M17.0757 5.4588C16.9866 5.10286 16.8052 4.77673 16.5497 4.51335C16.2942 4.24998 15.9738 4.05869 15.6207 3.9588C14.3307 3.6438 9.17072 3.6438 9.17072 3.6438C9.17072 3.6438 4.01072 3.6438 2.72072 3.9888C2.36765 4.08869 2.0472 4.27998 1.79173 4.54335C1.53625 4.80673 1.35481 5.13286 1.26572 5.4888C1.02963 6.79797 0.914144 8.12603 0.920717 9.4563C0.912301 10.7966 1.02779 12.1348 1.26572 13.4538C1.36394 13.7987 1.54945 14.1124 1.80432 14.3647C2.0592 14.6169 2.37483 14.7992 2.72072 14.8938C4.01072 15.2388 9.17072 15.2388 9.17072 15.2388C9.17072 15.2388 14.3307 15.2388 15.6207 14.8938C15.9738 14.7939 16.2942 14.6026 16.5497 14.3392C16.8052 14.0759 16.9866 13.7497 17.0757 13.3938C17.31 12.0945 17.4255 10.7765 17.4207 9.4563C17.4291 8.11602 17.3136 6.77782 17.0757 5.4588V5.4588Z" stroke="#F5841F" stroke-width="1.2" stroke-linecap="round" stroke-linejoin="round"/>
<path d="M7.48322 11.9088L11.7957 9.45628L7.48322 7.00378V11.9088Z" stroke="#F5841F" stroke-width="1.2" stroke-linecap="round" stroke-linejoin="round"/>
</g>
<defs>
<clipPath id="clip0_120_385">
<rect width="18" height="18" fill="white" transform="translate(0.170715 0.643799)"/>
</clipPath>
</defs>
</svg>
